<svg xmlns="http://www.w3.org/2000/svg" width="992" height="532" viewBox="0 0 992 532" font-family="Inter,Segoe UI,Arial,sans-serif">
<rect width="992" height="532" rx="20" fill="#ffffff"/>
<rect x="1" y="1" width="990" height="530" rx="19" fill="none" stroke="#eef2f0"/>
<text x="46" y="60" font-family="Inter,Segoe UI,Arial,sans-serif" font-size="29" font-weight="800" fill="#0d1f18" text-anchor="start">V2 expands on V1 across all three dimensions</text>
<defs><linearGradient id="grad_domain" x1="0" y1="0" x2="1" y2="0"><stop offset="0%" stop-color="#edf0ef"/><stop offset="40%" stop-color="#edf0ef"/><stop offset="100%" stop-color="#bfe8d3"/></linearGradient></defs>
<path d="M286.0,115.0 L904.0,115.0 L950.0,167.0 L904.0,219.0 L286.0,219.0 Q272.0,219.0 272.0,205.0 L272.0,129.0 Q272.0,115.0 286.0,115.0 Z" fill="url(#grad_domain)" stroke="#0f9d63" stroke-opacity="0.32"/>
<rect x="34" y="115" width="6" height="104" rx="3" fill="#0f9d63"/>
<text x="64" y="155.0" font-family="Inter,Segoe UI,Arial,sans-serif" font-size="21" font-weight="800" fill="#0f9d63" text-anchor="start">①</text>
<text x="102" y="151.0" font-family="Inter,Segoe UI,Arial,sans-serif" font-size="15" font-weight="800" fill="#0f9d63" text-anchor="start" letter-spacing="1.5">WIDTH</text>
<text x="102" y="175.0" font-family="Inter,Segoe UI,Arial,sans-serif" font-size="19" font-weight="700" fill="#0d1f18" text-anchor="start">Domains</text>
<line x1="588.0" y1="126.0" x2="588.0" y2="208.0" stroke="#0f9d63" stroke-opacity="0.4" stroke-width="1.3" stroke-dasharray="3 4"/>
<text x="288" y="133" font-family="Inter,Segoe UI,Arial,sans-serif" font-size="13.5" font-weight="800" fill="#93a49c" text-anchor="start" letter-spacing="1">V1</text>
<text x="600.0" y="133" font-family="Inter,Segoe UI,Arial,sans-serif" font-size="13.5" font-weight="800" fill="#0f9d63" text-anchor="start" letter-spacing="1">V2</text>
<circle cx="328" cy="167.0" r="26" fill="#ffffff" stroke="#c8d6cf" stroke-width="1.5"/><g transform="translate(312.5 151.5) scale(0.646)"><g fill="none" stroke="#9aa7a0" stroke-width="2.6" stroke-linecap="round" stroke-linejoin="round"><circle cx="17" cy="18" r="6"/><path d="M7 37c0-6.1 4.5-10 10-10s10 3.9 10 10"/><path d="M31 15h10M31 22h10M31 29h7"/></g></g>
<text x="328" y="205.0" font-family="Inter,Segoe UI,Arial,sans-serif" font-size="12" font-weight="600" fill="#4c5a54" text-anchor="middle">CRM</text>
<circle cx="432" cy="167.0" r="26" fill="#ffffff" stroke="#c8d6cf" stroke-width="1.5"/><g transform="translate(416.5 151.5) scale(0.646)"><g fill="none" stroke="#9aa7a0" stroke-width="2.2" stroke-linecap="round" stroke-linejoin="round"><rect x="7" y="7" width="14" height="14" rx="2.5"/><rect x="27" y="7" width="14" height="14" rx="2.5"/><rect x="7" y="27" width="14" height="14" rx="2.5"/><circle cx="34" cy="34" r="6.5"/><path d="M34 25.5v-2M34 44.5v-2M42.5 34h2M23.5 34h2M40 40l1.4 1.4M26.6 26.6 28 28M40 28l1.4-1.4M26.6 41.4 28 40"/></g></g>
<text x="432" y="205.0" font-family="Inter,Segoe UI,Arial,sans-serif" font-size="12" font-weight="600" fill="#4c5a54" text-anchor="middle">ERP</text>
<circle cx="536" cy="167.0" r="26" fill="#ffffff" stroke="#c8d6cf" stroke-width="1.5"/><g transform="translate(520.5 151.5) scale(0.646)"><g fill="none" stroke="#9aa7a0" stroke-width="2.6" stroke-linecap="round" stroke-linejoin="round"><circle cx="24" cy="24" r="14"/><path d="M24 14v20"/><path d="M29 18.5c-1.1-1.6-2.9-2.4-4.8-2.4-2.6 0-4.6 1.5-4.6 3.7 0 5.2 9.6 2.7 9.6 8 0 2.3-2.1 3.9-4.9 3.9-2.1 0-4-.9-5.1-2.6"/></g></g>
<text x="536" y="205.0" font-family="Inter,Segoe UI,Arial,sans-serif" font-size="12" font-weight="600" fill="#4c5a54" text-anchor="middle">Finance</text>
<circle cx="640" cy="167.0" r="26" fill="#ffffff" stroke="#c8d6cf" stroke-width="1.5"/><g transform="translate(624.5 151.5) scale(0.646)"><g fill="none" stroke="#0f9d63" stroke-width="2.3" stroke-linecap="round" stroke-linejoin="round"><path d="M24 12v26"/><path d="M16 38h16"/><path d="M10 16h28"/><circle cx="24" cy="12" r="2.4"/><path d="M10 16 4 26M10 16l6 10"/><path d="M4 26a6 6 0 0 0 12 0z"/><path d="M38 16 32 26M38 16l6 10"/><path d="M32 26a6 6 0 0 0 12 0z"/></g></g>
<text x="640" y="205.0" font-family="Inter,Segoe UI,Arial,sans-serif" font-size="12" font-weight="700" fill="#0d1f18" text-anchor="middle">Legal</text>
<circle cx="744" cy="167.0" r="26" fill="#ffffff" stroke="#c8d6cf" stroke-width="1.5"/><g transform="translate(728.5 151.5) scale(0.646)"><g fill="none" stroke="#0f9d63" stroke-width="2.6" stroke-linecap="round" stroke-linejoin="round"><rect x="9" y="9" width="30" height="30" rx="8"/><path d="M24 17v14M17 24h14"/></g></g>
<text x="744" y="205.0" font-family="Inter,Segoe UI,Arial,sans-serif" font-size="12" font-weight="700" fill="#0d1f18" text-anchor="middle">Medical</text>
<circle cx="848" cy="167.0" r="26" fill="#ffffff" stroke="#c8d6cf" stroke-width="1.5"/><g transform="translate(832.5 151.5) scale(0.646)"><g fill="none" stroke="#0f9d63" stroke-width="2.3" stroke-linecap="round" stroke-linejoin="round"><ellipse cx="19" cy="13" rx="11" ry="4.5"/><path d="M8 13v12.5c0 2.5 4.9 4.5 11 4.5s11-2 11-4.5V13"/><path d="M8 19.5c0 2.5 4.9 4.5 11 4.5s11-2 11-4.5"/><path d="M34 33h9M39 29l4 4-4 4"/></g></g>
<text x="848" y="205.0" font-family="Inter,Segoe UI,Arial,sans-serif" font-size="12" font-weight="700" fill="#0d1f18" text-anchor="middle">Data Ops</text>
<defs><linearGradient id="grad_model" x1="0" y1="0" x2="1" y2="0"><stop offset="0%" stop-color="#edf0ef"/><stop offset="40%" stop-color="#edf0ef"/><stop offset="100%" stop-color="#c7d2f5"/></linearGradient></defs>
<path d="M286.0,249.0 L904.0,249.0 L950.0,301.0 L904.0,353.0 L286.0,353.0 Q272.0,353.0 272.0,339.0 L272.0,263.0 Q272.0,249.0 286.0,249.0 Z" fill="url(#grad_model)" stroke="#3a5bd0" stroke-opacity="0.32"/>
<rect x="34" y="249" width="6" height="104" rx="3" fill="#3a5bd0"/>
<text x="64" y="289.0" font-family="Inter,Segoe UI,Arial,sans-serif" font-size="21" font-weight="800" fill="#3a5bd0" text-anchor="start">②</text>
<text x="102" y="285.0" font-family="Inter,Segoe UI,Arial,sans-serif" font-size="15" font-weight="800" fill="#3a5bd0" text-anchor="start" letter-spacing="1.5">DEPTH</text>
<text x="102" y="309.0" font-family="Inter,Segoe UI,Arial,sans-serif" font-size="19" font-weight="700" fill="#0d1f18" text-anchor="start">Models</text>
<line x1="588.0" y1="260.0" x2="588.0" y2="342.0" stroke="#3a5bd0" stroke-opacity="0.4" stroke-width="1.3" stroke-dasharray="3 4"/>
<text x="288" y="267" font-family="Inter,Segoe UI,Arial,sans-serif" font-size="13.5" font-weight="800" fill="#93a49c" text-anchor="start" letter-spacing="1">V1</text>
<text x="600.0" y="267" font-family="Inter,Segoe UI,Arial,sans-serif" font-size="13.5" font-weight="800" fill="#3a5bd0" text-anchor="start" letter-spacing="1">V2</text>
<circle cx="328" cy="301.0" r="26" fill="#ffffff" stroke="#c8d6cf" stroke-width="1.5"/><svg x="312.5" y="285.5" width="31.0" height="31.0" viewBox="0 0 256 257" preserveAspectRatio="xMidYMid meet" overflow="visible"><path fill="#D97757" d="m50.228 170.321 50.357-28.257.843-2.463-.843-1.361h-2.462l-8.426-.518-28.775-.778-24.952-1.037-24.175-1.296-6.092-1.297L0 125.796l.583-3.759 5.12-3.434 7.324.648 16.202 1.101 24.304 1.685 17.629 1.037 26.118 2.722h4.148l.583-1.685-1.426-1.037-1.101-1.037-25.147-17.045-27.22-18.017-14.258-10.37-7.713-5.25-3.888-4.925-1.685-10.758 7-7.713 9.397.649 2.398.648 9.527 7.323 20.35 15.75L94.817 91.9l3.889 3.24 1.555-1.102.195-.777-1.75-2.917-14.453-26.118-15.425-26.572-6.87-11.018-1.814-6.61c-.648-2.723-1.102-4.991-1.102-7.778l7.972-10.823L71.42 0 82.05 1.426l4.472 3.888 6.61 15.101 10.694 23.786 16.591 32.34 4.861 9.592 2.592 8.879.973 2.722h1.685v-1.556l1.36-18.211 2.528-22.36 2.463-28.776.843-8.1 4.018-9.722 7.971-5.25 6.222 2.981 5.12 7.324-.713 4.73-3.046 19.768-5.962 30.98-3.889 20.739h2.268l2.593-2.593 10.499-13.934 17.628-22.036 7.778-8.749 9.073-9.657 5.833-4.601h11.018l8.1 12.055-3.628 12.443-11.342 14.388-9.398 12.184-13.48 18.147-8.426 14.518.778 1.166 2.01-.194 30.46-6.481 16.462-2.982 19.637-3.37 8.88 4.148.971 4.213-3.5 8.62-20.998 5.184-24.628 4.926-36.682 8.685-.454.324.519.648 16.526 1.555 7.065.389h17.304l32.21 2.398 8.426 5.574 5.055 6.805-.843 5.184-12.962 6.611-17.498-4.148-40.83-9.721-14-3.5h-1.944v1.167l11.666 11.406 21.387 19.314 26.767 24.887 1.36 6.157-3.434 4.86-3.63-.518-23.526-17.693-9.073-7.972-20.545-17.304h-1.36v1.814l4.73 6.935 25.017 37.59 1.296 11.536-1.814 3.76-6.481 2.268-7.13-1.297-14.647-20.544-15.1-23.138-12.185-20.739-1.49.843-7.194 77.448-3.37 3.953-7.778 2.981-6.48-4.925-3.436-7.972 3.435-15.749 4.148-20.544 3.37-16.333 3.046-20.285 1.815-6.74-.13-.454-1.49.194-15.295 20.999-23.267 31.433-18.406 19.702-4.407 1.75-7.648-3.954.713-7.064 4.277-6.286 25.47-32.405 15.36-20.092 9.917-11.6-.065-1.686h-.583L44.07 198.125l-12.055 1.555-5.185-4.86.648-7.972 2.463-2.593 20.35-13.999-.064.065Z"/></svg>
<text x="328" y="339.0" font-family="Inter,Segoe UI,Arial,sans-serif" font-size="12" font-weight="600" fill="#4c5a54" text-anchor="middle">Opus 4.8</text>
<circle cx="432" cy="301.0" r="26" fill="#ffffff" stroke="#c8d6cf" stroke-width="1.5"/><svg x="416.5" y="285.5" width="31.0" height="31.0" viewBox="0 0 256 257" preserveAspectRatio="xMidYMid meet" overflow="visible"><path fill="#D97757" d="m50.228 170.321 50.357-28.257.843-2.463-.843-1.361h-2.462l-8.426-.518-28.775-.778-24.952-1.037-24.175-1.296-6.092-1.297L0 125.796l.583-3.759 5.12-3.434 7.324.648 16.202 1.101 24.304 1.685 17.629 1.037 26.118 2.722h4.148l.583-1.685-1.426-1.037-1.101-1.037-25.147-17.045-27.22-18.017-14.258-10.37-7.713-5.25-3.888-4.925-1.685-10.758 7-7.713 9.397.649 2.398.648 9.527 7.323 20.35 15.75L94.817 91.9l3.889 3.24 1.555-1.102.195-.777-1.75-2.917-14.453-26.118-15.425-26.572-6.87-11.018-1.814-6.61c-.648-2.723-1.102-4.991-1.102-7.778l7.972-10.823L71.42 0 82.05 1.426l4.472 3.888 6.61 15.101 10.694 23.786 16.591 32.34 4.861 9.592 2.592 8.879.973 2.722h1.685v-1.556l1.36-18.211 2.528-22.36 2.463-28.776.843-8.1 4.018-9.722 7.971-5.25 6.222 2.981 5.12 7.324-.713 4.73-3.046 19.768-5.962 30.98-3.889 20.739h2.268l2.593-2.593 10.499-13.934 17.628-22.036 7.778-8.749 9.073-9.657 5.833-4.601h11.018l8.1 12.055-3.628 12.443-11.342 14.388-9.398 12.184-13.48 18.147-8.426 14.518.778 1.166 2.01-.194 30.46-6.481 16.462-2.982 19.637-3.37 8.88 4.148.971 4.213-3.5 8.62-20.998 5.184-24.628 4.926-36.682 8.685-.454.324.519.648 16.526 1.555 7.065.389h17.304l32.21 2.398 8.426 5.574 5.055 6.805-.843 5.184-12.962 6.611-17.498-4.148-40.83-9.721-14-3.5h-1.944v1.167l11.666 11.406 21.387 19.314 26.767 24.887 1.36 6.157-3.434 4.86-3.63-.518-23.526-17.693-9.073-7.972-20.545-17.304h-1.36v1.814l4.73 6.935 25.017 37.59 1.296 11.536-1.814 3.76-6.481 2.268-7.13-1.297-14.647-20.544-15.1-23.138-12.185-20.739-1.49.843-7.194 77.448-3.37 3.953-7.778 2.981-6.48-4.925-3.436-7.972 3.435-15.749 4.148-20.544 3.37-16.333 3.046-20.285 1.815-6.74-.13-.454-1.49.194-15.295 20.999-23.267 31.433-18.406 19.702-4.407 1.75-7.648-3.954.713-7.064 4.277-6.286 25.47-32.405 15.36-20.092 9.917-11.6-.065-1.686h-.583L44.07 198.125l-12.055 1.555-5.185-4.86.648-7.972 2.463-2.593 20.35-13.999-.064.065Z"/></svg>
<text x="432" y="339.0" font-family="Inter,Segoe UI,Arial,sans-serif" font-size="12" font-weight="600" fill="#4c5a54" text-anchor="middle">Opus 4.6</text>
<circle cx="536" cy="301.0" r="26" fill="#ffffff" stroke="#c8d6cf" stroke-width="1.5"/><svg x="520.5" y="285.5" width="31.0" height="31.0" viewBox="0 0 256 260" preserveAspectRatio="xMidYMid meet" overflow="visible"><g fill="#0d1f18"><path d="M239.184 106.203a64.716 64.716 0 0 0-5.576-53.103C219.452 28.459 191 15.784 163.213 21.74A65.586 65.586 0 0 0 52.096 45.22a64.716 64.716 0 0 0-43.23 31.36c-14.31 24.602-11.061 55.634 8.033 76.74a64.665 64.665 0 0 0 5.525 53.102c14.174 24.65 42.644 37.324 70.446 31.36a64.72 64.72 0 0 0 48.754 21.744c28.481.025 53.714-18.361 62.414-45.481a64.767 64.767 0 0 0 43.229-31.36c14.137-24.558 10.875-55.423-8.083-76.483Zm-97.56 136.338a48.397 48.397 0 0 1-31.105-11.255l1.535-.87 51.67-29.825a8.595 8.595 0 0 0 4.247-7.367v-72.85l21.845 12.636c.218.111.37.32.409.563v60.367c-.056 26.818-21.783 48.545-48.601 48.601Zm-104.466-44.61a48.345 48.345 0 0 1-5.781-32.589l1.534.921 51.722 29.826a8.339 8.339 0 0 0 8.441 0l63.181-36.425v25.221a.87.87 0 0 1-.358.665l-52.335 30.184c-23.257 13.398-52.97 5.431-66.404-17.803ZM23.549 85.38a48.499 48.499 0 0 1 25.58-21.333v61.39a8.288 8.288 0 0 0 4.195 7.316l62.874 36.272-21.845 12.636a.819.819 0 0 1-.767 0L41.353 151.53c-23.211-13.454-31.171-43.144-17.804-66.405v.256Zm179.466 41.695-63.08-36.63L161.73 77.86a.819.819 0 0 1 .768 0l52.233 30.184a48.6 48.6 0 0 1-7.316 87.635v-61.391a8.544 8.544 0 0 0-4.4-7.213Zm21.742-32.69-1.535-.922-51.619-30.081a8.39 8.39 0 0 0-8.492 0L99.98 99.808V74.587a.716.716 0 0 1 .307-.665l52.233-30.133a48.652 48.652 0 0 1 72.236 50.391v.205ZM88.061 139.097l-21.845-12.585a.87.87 0 0 1-.41-.614V65.685a48.652 48.652 0 0 1 79.757-37.346l-1.535.87-51.67 29.825a8.595 8.595 0 0 0-4.246 7.367l-.051 72.697Zm11.868-25.58 28.138-16.217 28.188 16.218v32.434l-28.086 16.218-28.188-16.218-.052-32.434Z"/></g></svg>
<text x="536" y="339.0" font-family="Inter,Segoe UI,Arial,sans-serif" font-size="12" font-weight="600" fill="#4c5a54" text-anchor="middle">GPT-5.5</text>
<circle cx="640" cy="301.0" r="26" fill="#ffffff" stroke="#c8d6cf" stroke-width="1.5"/><svg x="624.5" y="285.5" width="31.0" height="31.0" viewBox="0 0 24 24" preserveAspectRatio="xMidYMid meet" overflow="visible"><path fill="#4D6BFE" d="M23.748 4.482c-.254-.124-.364.113-.512.234-.051.039-.094.09-.137.136-.372.397-.806.657-1.373.626-.829-.046-1.537.214-2.163.848-.133-.782-.575-1.248-1.247-1.548-.352-.156-.708-.311-.955-.65-.172-.241-.219-.51-.305-.774-.055-.16-.11-.323-.293-.35-.2-.031-.278.136-.356.276-.313.572-.434 1.202-.422 1.84.027 1.436.633 2.58 1.838 3.393.137.093.172.187.129.323-.082.28-.18.552-.266.833-.055.179-.137.217-.329.14a5.526 5.526 0 0 1-1.736-1.18c-.857-.828-1.631-1.742-2.597-2.458a11.365 11.365 0 0 0-.689-.471c-.985-.957.13-1.743.388-1.836.27-.098.093-.432-.779-.428-.872.004-1.67.295-2.687.684a3.055 3.055 0 0 1-.465.137 9.597 9.597 0 0 0-2.883-.102c-1.885.21-3.39 1.102-4.497 2.623C.082 8.606-.231 10.684.152 12.85c.403 2.284 1.569 4.175 3.36 5.653 1.858 1.533 3.997 2.284 6.438 2.14 1.482-.085 3.133-.284 4.994-1.86.47.234.962.327 1.78.397.63.059 1.236-.03 1.705-.128.735-.156.684-.837.419-.961-2.155-1.004-1.682-.595-2.113-.926 1.096-1.296 2.746-2.642 3.392-7.003.05-.347.007-.565 0-.845-.004-.17.035-.237.23-.256a4.173 4.173 0 0 0 1.545-.475c1.396-.763 1.96-2.015 2.093-3.517.02-.23-.004-.467-.247-.588zM11.581 18c-2.089-1.642-3.102-2.183-3.52-2.16-.392.024-.321.471-.235.763.09.288.207.486.371.739.114.167.192.416-.113.603-.673.416-1.842-.14-1.897-.167-1.361-.802-2.5-1.86-3.301-3.307-.774-1.393-1.224-2.887-1.298-4.482-.02-.386.093-.522.477-.592a4.696 4.696 0 0 1 1.529-.039c2.132.312 3.946 1.265 5.468 2.774.868.86 1.525 1.887 2.202 2.891.72 1.066 1.494 2.082 2.48 2.914.348.292.625.514.891.677-.802.09-2.14.11-3.054-.614zm1-6.44a.306.306 0 0 1 .415-.287.302.302 0 0 1 .2.288.306.306 0 0 1-.31.307.303.303 0 0 1-.304-.308zm3.11 1.596c-.2.081-.399.151-.59.16a1.245 1.245 0 0 1-.798-.254c-.274-.23-.47-.358-.552-.758a1.73 1.73 0 0 1 .016-.588c.07-.327-.008-.537-.239-.727-.187-.156-.426-.199-.688-.199a.559.559 0 0 1-.254-.078.253.253 0 0 1-.114-.358c.028-.054.16-.186.192-.21.356-.202.767-.136 1.146.016.352.144.618.408 1.001.782.391.451.462.576.685.914.176.265.336.537.445.848.067.195-.019.354-.25.452z"/></svg>
<text x="640" y="339.0" font-family="Inter,Segoe UI,Arial,sans-serif" font-size="12" font-weight="700" fill="#0d1f18" text-anchor="middle">DeepSeek V4 Pro</text>
<circle cx="744" cy="301.0" r="26" fill="#ffffff" stroke="#c8d6cf" stroke-width="1.5"/><svg x="728.5" y="285.5" width="31.0" height="31.0" viewBox="0 0 512 512" preserveAspectRatio="xMidYMid meet" overflow="visible"><path d="M503 114.333v280c0 60.711-49.29 110-110 110H113c-60.711 0-110-49.289-110-110v-280c0-60.71 49.289-110 110-110h280c60.71 0 110 49.29 110 110z"/><path d="M342.065 189.759c1.886-2.42 3.541-4.63 5.289-6.77.81-1.007.74-1.771-.046-2.824-7.58-9.965-8.298-21.028-3.935-32.254 3.275-8.448 10.52-12.406 19.373-13.25 5.52-.521 10.936.046 15.959 2.73 6.596 3.53 10.438 8.912 11.688 16.341.995 5.926.81 11.712-.868 17.452-2.974 10.161-10.277 15.427-20.287 16.758-8.31 1.11-16.734 1.25-25.113 1.817-.648.046-1.308 0-2.06 0z" fill="#027aff"/><path d="M321.512 144.254h-50.064l-39.637 90.384h-56.036v-89.99H131v232.868h44.787v-98.103h78.973c13.598 0 26.015-7.927 31.744-20.252v118.355h44.787v-98.103c0-23.342-18.239-42.97-41.523-44.671v-.116h-24.593a45.577 45.577 0 0026.884-24.534l29.453-65.838z" fill="#fff"/></svg>
<text x="744" y="339.0" font-family="Inter,Segoe UI,Arial,sans-serif" font-size="12" font-weight="700" fill="#0d1f18" text-anchor="middle">Kimi K2.6</text>
<circle cx="848" cy="301.0" r="26" fill="#ffffff" stroke="#c8d6cf" stroke-width="1.5"/><svg x="832.5" y="285.5" width="31.0" height="31.0" viewBox="0 0 24 24" preserveAspectRatio="xMidYMid meet" overflow="visible"><g fill="#0d1f18"><path d="M12.105 2L9.927 4.953H.653L2.83 2h9.276zM23.254 19.048L21.078 22h-9.242l2.174-2.952h9.244zM24 2L9.264 22H0L14.736 2H24z"></path></g></svg>
<text x="848" y="339.0" font-family="Inter,Segoe UI,Arial,sans-serif" font-size="12" font-weight="700" fill="#0d1f18" text-anchor="middle">GLM-5.2</text>
<defs><linearGradient id="grad_metric" x1="0" y1="0" x2="1" y2="0"><stop offset="0%" stop-color="#edf0ef"/><stop offset="40%" stop-color="#edf0ef"/><stop offset="100%" stop-color="#f3dcac"/></linearGradient></defs>
<path d="M286.0,383.0 L904.0,383.0 L950.0,435.0 L904.0,487.0 L286.0,487.0 Q272.0,487.0 272.0,473.0 L272.0,397.0 Q272.0,383.0 286.0,383.0 Z" fill="url(#grad_metric)" stroke="#c9871f" stroke-opacity="0.32"/>
<rect x="34" y="383" width="6" height="104" rx="3" fill="#c9871f"/>
<text x="64" y="423.0" font-family="Inter,Segoe UI,Arial,sans-serif" font-size="21" font-weight="800" fill="#c9871f" text-anchor="start">③</text>
<text x="102" y="419.0" font-family="Inter,Segoe UI,Arial,sans-serif" font-size="15" font-weight="800" fill="#c9871f" text-anchor="start" letter-spacing="1.5">LENS</text>
<text x="102" y="443.0" font-family="Inter,Segoe UI,Arial,sans-serif" font-size="19" font-weight="700" fill="#0d1f18" text-anchor="start">Metrics &amp; Views</text>
<line x1="588.0" y1="394.0" x2="588.0" y2="476.0" stroke="#c9871f" stroke-opacity="0.4" stroke-width="1.3" stroke-dasharray="3 4"/>
<text x="288" y="401" font-family="Inter,Segoe UI,Arial,sans-serif" font-size="13.5" font-weight="800" fill="#93a49c" text-anchor="start" letter-spacing="1">V1</text>
<text x="600.0" y="401" font-family="Inter,Segoe UI,Arial,sans-serif" font-size="13.5" font-weight="800" fill="#c9871f" text-anchor="start" letter-spacing="1">V2</text>
<circle cx="328" cy="435.0" r="26" fill="#ffffff" stroke="#c8d6cf" stroke-width="1.5"/><g transform="translate(312.5 419.5) scale(0.646)"><g fill="none" stroke="#9aa7a0" stroke-width="2.3" stroke-linecap="round" stroke-linejoin="round"><circle cx="22" cy="25" r="13"/><circle cx="22" cy="25" r="7"/><circle cx="22" cy="25" r="1.7" fill="#9aa7a0"/><path d="M22 25 41 8M41 8l-.6 5.4M41 8l-5.4.6"/></g></g>
<text x="328" y="473.0" font-family="Inter,Segoe UI,Arial,sans-serif" font-size="12" font-weight="600" fill="#4c5a54" text-anchor="middle">Accuracy</text>
<circle cx="432" cy="435.0" r="26" fill="#ffffff" stroke="#c8d6cf" stroke-width="1.5"/><g transform="translate(416.5 419.5) scale(0.646)"><g fill="none" stroke="#9aa7a0" stroke-width="2.3" stroke-linecap="round" stroke-linejoin="round"><ellipse cx="24" cy="14" rx="12" ry="4.5"/><path d="M12 14v6c0 2.5 5.4 4.5 12 4.5s12-2 12-4.5v-6"/><path d="M12 20v6c0 2.5 5.4 4.5 12 4.5s12-2 12-4.5v-6"/><path d="M12 26v6c0 2.5 5.4 4.5 12 4.5s12-2 12-4.5v-6"/></g></g>
<text x="432" y="473.0" font-family="Inter,Segoe UI,Arial,sans-serif" font-size="12" font-weight="600" fill="#4c5a54" text-anchor="middle">Tokens</text>
<circle cx="536" cy="435.0" r="26" fill="#ffffff" stroke="#c8d6cf" stroke-width="1.5"/><g transform="translate(520.5 419.5) scale(0.646)"><g fill="none" stroke="#9aa7a0" stroke-width="2.6" stroke-linecap="round" stroke-linejoin="round"><path d="M39 9 26 9 8 27 21 40 39 22Z"/><circle cx="32" cy="16" r="2.6"/></g></g>
<text x="536" y="473.0" font-family="Inter,Segoe UI,Arial,sans-serif" font-size="12" font-weight="600" fill="#4c5a54" text-anchor="middle">Cost</text>
<circle cx="640" cy="435.0" r="26" fill="#ffffff" stroke="#c8d6cf" stroke-width="1.5"/><g transform="translate(624.5 419.5) scale(0.646)"><g fill="none" stroke="#c9871f" stroke-width="2.4" stroke-linecap="round" stroke-linejoin="round"><path d="M11 22a13 13 0 0 1 23-6.5"/><path d="M34 9v7h-7"/><path d="M37 26a13 13 0 0 1-23 6.5"/><path d="M14 39v-7h7"/></g></g>
<text x="640" y="473.0" font-family="Inter,Segoe UI,Arial,sans-serif" font-size="12" font-weight="700" fill="#0d1f18" text-anchor="middle">Turns</text>
<circle cx="744" cy="435.0" r="26" fill="#ffffff" stroke="#c8d6cf" stroke-width="1.5"/><g transform="translate(728.5 419.5) scale(0.646)"><g stroke="#c9871f" stroke-width="1.4"><rect x="9" y="9" width="9" height="9" rx="1.6" fill="#c9871f" fill-opacity="0.15"/><rect x="20" y="9" width="9" height="9" rx="1.6" fill="#c9871f" fill-opacity="0.55"/><rect x="31" y="9" width="9" height="9" rx="1.6" fill="#c9871f" fill-opacity="0.30"/><rect x="9" y="20" width="9" height="9" rx="1.6" fill="#c9871f" fill-opacity="0.75"/><rect x="20" y="20" width="9" height="9" rx="1.6" fill="#c9871f" fill-opacity="0.95"/><rect x="31" y="20" width="9" height="9" rx="1.6" fill="#c9871f" fill-opacity="0.45"/><rect x="9" y="31" width="9" height="9" rx="1.6" fill="#c9871f" fill-opacity="0.35"/><rect x="20" y="31" width="9" height="9" rx="1.6" fill="#c9871f" fill-opacity="0.20"/><rect x="31" y="31" width="9" height="9" rx="1.6" fill="#c9871f" fill-opacity="0.65"/><rect x="8" y="8" width="32" height="32" rx="3" fill="none"/></g></g>
<text x="744" y="473.0" font-family="Inter,Segoe UI,Arial,sans-serif" font-size="12" font-weight="700" fill="#0d1f18" text-anchor="middle">Heatmap</text>
<circle cx="848" cy="435.0" r="26" fill="#ffffff" stroke="#c8d6cf" stroke-width="1.5"/><g transform="translate(832.5 419.5) scale(0.646)"><g fill="none" stroke="#c9871f" stroke-width="2" stroke-linejoin="round"><path d="M24.0 10.0 38.3 20.4 32.8 37.1 15.2 37.1 9.7 20.4Z"/><path d="M24.0 16.0 32.6 22.2 29.3 32.3 18.7 32.3 15.4 22.2Z" opacity="0.5"/><path d="M24 25 24.0 10.0"/><path d="M24 25 38.3 20.4"/><path d="M24 25 32.8 37.1"/><path d="M24 25 15.2 37.1"/><path d="M24 25 9.7 20.4"/><path d="M24.0 10.0 31.6 22.5 31.6 35.5 20.5 29.9 13.5 21.6Z" fill="#c9871f" fill-opacity="0.22" stroke-width="2.4"/></g></g>
<text x="848" y="473.0" font-family="Inter,Segoe UI,Arial,sans-serif" font-size="12" font-weight="700" fill="#0d1f18" text-anchor="middle">Radar</text>
</svg>